<svg width="135" height="24" viewBox="0 0 135 24" fill="none" xmlns="http://www.w3.org/2000/svg">
<path fill-rule="evenodd" clip-rule="evenodd" d="M124.733 3.65966H126.606V8.32759H127.541V3.65966H129.414V2.72607L124.737 2.72853L124.733 3.65966Z" fill="#161616"/>
<path fill-rule="evenodd" clip-rule="evenodd" d="M129.414 8.32759V2.72607H131.052L132.222 7.39401L133.362 2.72607H135V8.32759H134.065V3.65966L132.807 8.32759H131.636L130.35 3.65966V8.32759H129.414Z" fill="#161616"/>
<path fill-rule="evenodd" clip-rule="evenodd" d="M32.7127 7.1543C32.2673 7.28096 31.8512 7.49485 31.4884 7.78368C31.1436 8.06457 30.8697 8.4233 30.6889 8.83068C30.491 9.28895 30.3938 9.78469 30.4037 10.2841V10.5626C30.4033 10.6338 30.4109 10.7047 30.4262 10.7742H32.2829V10.5069C32.283 10.2757 32.313 10.0454 32.3723 9.82198C32.4302 9.59911 32.5331 9.39059 32.6746 9.20937C32.8256 9.01998 33.0191 8.86919 33.2392 8.76934C33.5198 8.64889 33.8232 8.59186 34.1281 8.60227C34.4509 8.59196 34.7728 8.64098 35.0781 8.74692C35.2993 8.82391 35.4964 8.95815 35.6495 9.13609C35.8026 9.31404 35.9064 9.52941 35.9503 9.7605C36.0046 10.0205 36.0308 10.2857 36.0285 10.5513V12.0991C35.2169 12.095 34.406 12.149 33.6021 12.2607C32.9273 12.3461 32.2726 12.5497 31.6677 12.8621C31.1371 13.1425 30.6954 13.567 30.3931 14.0873C30.0873 14.6108 29.9344 15.2846 29.9345 16.1089C29.9273 16.5333 29.9781 16.9568 30.0855 17.3673C30.1709 17.6896 30.307 17.996 30.4885 18.2752C30.6449 18.5122 30.8418 18.7196 31.07 18.8878C31.2791 19.0417 31.5087 19.1654 31.7519 19.2553C31.9783 19.3385 32.2125 19.3982 32.4509 19.4335C32.6656 19.4657 32.8823 19.4824 33.0994 19.4836C33.6934 19.4933 34.28 19.3515 34.8046 19.0715C35.3058 18.7987 35.7278 18.3995 36.0289 17.9131H36.1407C36.2446 18.3341 36.4796 18.7108 36.8116 18.988C37.1605 19.2661 37.5966 19.4102 38.0417 19.3945C38.3016 19.4 38.5612 19.37 38.8131 19.3054C38.9758 19.2639 39.1334 19.2041 39.2828 19.1272V17.824H38.5559C38.3889 17.8228 38.2287 17.757 38.1087 17.6403C37.9744 17.5178 37.9072 17.3153 37.9072 17.0328V10.3064C37.9072 9.24467 37.6053 8.41861 37.0014 7.82824C36.3976 7.23786 35.4882 6.94267 34.2732 6.94267C33.7456 6.9373 33.22 7.00858 32.7127 7.1543ZM36.028 14.862C36.0373 15.3067 35.9615 15.7492 35.8045 16.1651C35.6729 16.5087 35.4754 16.8228 35.223 17.0896C34.9967 17.3262 34.7246 17.5139 34.4235 17.641C34.1422 17.7608 33.84 17.8232 33.5346 17.8247C33.0052 17.8247 32.6026 17.6911 32.327 17.4237C32.0513 17.1564 31.9134 16.6812 31.9133 15.9981C31.8949 15.5971 32.0005 15.2002 32.2156 14.862C32.4296 14.5618 32.7217 14.3266 33.0599 14.1821C33.4726 14.0056 33.9102 13.8947 34.3568 13.8536C34.9121 13.7952 35.4702 13.7673 36.0285 13.77V14.8615L36.028 14.862ZM42.7705 17.8247C43.0194 18.336 43.4045 18.7679 43.8831 19.0722C44.3386 19.3535 44.8636 19.5002 45.3982 19.4955C45.9361 19.504 46.4679 19.3798 46.9469 19.1338C47.431 18.8681 47.8361 18.478 48.1209 18.0032C48.4811 17.3981 48.7343 16.7348 48.8694 16.0429C49.0583 15.1046 49.1464 14.1487 49.1321 13.1915C49.147 12.2445 49.0532 11.2989 48.8526 10.3735C48.7066 9.68738 48.4478 9.03051 48.0867 8.42999C47.8057 7.96347 47.4113 7.57637 46.9406 7.30503C46.5091 7.06605 46.0242 6.94158 45.5316 6.9434C44.9887 6.93414 44.4523 7.06249 43.9718 7.3166C43.5337 7.54416 43.1821 7.91009 42.971 8.3581H42.8592V2.7207H40.9815V19.217H42.4015L42.6475 17.8247H42.7705ZM47.1649 13.6479C47.173 14.2891 47.128 14.9299 47.0307 15.5637C46.9659 16.0132 46.8298 16.4494 46.6276 16.8557C46.4762 17.1603 46.2415 17.4153 45.9512 17.5908C45.6622 17.751 45.3362 17.8317 45.0063 17.8247C44.2831 17.8247 43.7446 17.4757 43.3906 16.7777C43.0366 16.0797 42.8595 15.0365 42.8594 13.6479V12.8793C42.8594 10.0355 43.575 8.6135 45.0063 8.61341C45.3362 8.60643 45.6622 8.68712 45.9512 8.84731C46.2415 9.02285 46.4762 9.27782 46.6276 9.58243C46.8298 9.98872 46.9658 10.4249 47.0307 10.8745C47.1278 11.5045 47.1727 12.1416 47.1649 12.7791V13.6479ZM58.5252 7.22113H51.012V8.89186H55.943L50.6429 18.3259V19.217H58.8166V17.5574H53.2147L58.5258 8.07877V7.22113H58.5252ZM63.1992 16.7443H60.907V19.217H63.1992V16.7443ZM68.2141 7.15386C67.7687 7.28053 67.3526 7.49442 66.9898 7.78325C66.645 8.06414 66.371 8.42286 66.1902 8.83024C65.9924 9.28851 65.8951 9.78426 65.9051 10.2837V10.5622C65.9047 10.6333 65.9122 10.7043 65.9276 10.7738H67.7836V10.5065C67.7837 10.2752 67.8138 10.045 67.8731 9.82155C67.931 9.5987 68.0339 9.39018 68.1753 9.20894C68.3265 9.01957 68.52 8.8688 68.7401 8.76891C69.0207 8.64846 69.3242 8.59142 69.6291 8.60184C69.9518 8.59153 70.2738 8.64055 70.579 8.74649C70.8002 8.82345 70.9973 8.95768 71.1504 9.13563C71.3036 9.31358 71.4073 9.52897 71.4511 9.76007C71.5055 10.0201 71.5318 10.2852 71.5294 10.5509V12.0987C70.7178 12.0946 69.9069 12.1486 69.103 12.2602C68.4282 12.3457 67.7736 12.5493 67.1687 12.8617C66.638 13.142 66.1963 13.5666 65.894 14.0869C65.5882 14.6104 65.4354 15.2842 65.4354 16.1084C65.4282 16.5329 65.479 16.9563 65.5864 17.3669C65.6719 17.6891 65.8079 17.9956 65.9894 18.2747C66.1459 18.5117 66.3427 18.7191 66.5708 18.8873C66.78 19.0412 67.0096 19.165 67.2529 19.2549C67.4792 19.338 67.7134 19.3978 67.9518 19.4331C68.1665 19.4653 68.3833 19.482 68.6004 19.4832C69.1943 19.4928 69.7809 19.351 70.3055 19.0711C70.8068 18.7982 71.2287 18.399 71.5298 17.9127H71.6417C71.7455 18.3337 71.9806 18.7104 72.3125 18.9876C72.6614 19.2657 73.0975 19.4098 73.5426 19.3941C73.8026 19.3995 74.0621 19.3696 74.3141 19.305C74.4768 19.2635 74.6343 19.2037 74.7837 19.1267V17.8236H74.0569C73.8898 17.8224 73.7297 17.7566 73.6097 17.6399C73.4753 17.5174 73.4081 17.3149 73.4081 17.0323V10.3064C73.4081 9.24467 73.1063 8.41861 72.5025 7.82824C71.8988 7.23786 70.9894 6.94267 69.7743 6.94267C69.2468 6.93733 68.7213 7.0086 68.2141 7.1543V7.15386ZM71.5294 14.8615C71.5387 15.3063 71.4628 15.7487 71.3059 16.1647C71.1743 16.5082 70.9767 16.8224 70.7244 17.0892C70.498 17.3258 70.226 17.5135 69.9248 17.6406C69.6436 17.7604 69.3414 17.8228 69.0359 17.8243C68.5065 17.8243 68.104 17.6906 67.8283 17.4233C67.5526 17.156 67.4148 16.6808 67.4147 15.9976C67.3963 15.5966 67.5019 15.1998 67.7169 14.8615C67.931 14.5613 68.2231 14.3261 68.5612 14.1817C68.974 14.0051 69.4115 13.8943 69.8582 13.8531C70.4135 13.7948 70.9715 13.7669 71.5298 13.7695V14.8611L71.5294 14.8615ZM83.4378 5.27107C83.4082 5.46321 83.3652 5.65303 83.3091 5.83912C83.2495 6.03312 83.165 6.21848 83.0577 6.39053C82.9363 6.58392 82.7897 6.76 82.6216 6.91403C82.4193 7.09735 82.1937 7.25277 81.9507 7.3762C81.6878 7.239 81.4102 7.13251 81.1232 7.05883C80.8275 6.98117 80.5231 6.94183 80.2174 6.9418C79.6555 6.9334 79.0967 7.02775 78.5683 7.22026C78.1008 7.39244 77.6769 7.66628 77.327 8.02221C76.9798 8.38419 76.7147 8.81735 76.5498 9.29197C76.3633 9.83621 76.2725 10.4089 76.2815 10.9844C76.2689 11.6006 76.395 12.2118 76.6504 12.7722C76.8906 13.2809 77.2423 13.7283 77.6792 14.0808C77.2055 14.2397 76.7801 14.5177 76.4435 14.8884C76.136 15.2361 75.9703 15.6875 75.9795 16.1525C75.9784 16.5122 76.0668 16.8664 76.2367 17.1829C76.4047 17.5023 76.656 17.7699 76.9636 17.9569C76.7254 18.0458 76.5056 18.1779 76.315 18.3468C76.1217 18.5169 75.9558 18.716 75.823 18.9371C75.6851 19.1683 75.5797 19.4176 75.5098 19.6779C75.4349 19.9518 75.3974 20.2347 75.3982 20.5187C75.3954 20.8966 75.4597 21.2719 75.5882 21.6271C75.711 21.9661 75.9033 22.2753 76.1528 22.5348C76.4167 22.8039 76.7351 23.0129 77.0865 23.1474C77.501 23.3032 77.9411 23.3788 78.3836 23.3701H81.7939C82.3095 23.3793 82.8221 23.2886 83.3035 23.1028C83.7182 22.9411 84.0951 22.6949 84.4105 22.3795C84.7103 22.0722 84.941 21.7038 85.087 21.2991C85.2419 20.8709 85.3196 20.4182 85.3163 19.9625C85.3183 19.5952 85.2519 19.2307 85.1207 18.8878C84.9938 18.5557 84.8017 18.2526 84.5559 17.9967C84.302 17.7351 83.9977 17.5284 83.6615 17.3892C83.289 17.2364 82.8897 17.1607 82.4874 17.1664H79.0434C78.8995 17.1675 78.7568 17.1391 78.6241 17.0829C78.4947 17.028 78.3771 16.9486 78.2775 16.849C78.1773 16.7495 78.0958 16.6325 78.0372 16.5038C77.9771 16.3728 77.9466 16.2302 77.9476 16.086C77.9466 15.9446 77.9743 15.8045 78.0291 15.6742C78.0839 15.544 78.1646 15.4263 78.2663 15.3286C78.3671 15.2321 78.4846 15.1547 78.6129 15.1003C78.7493 15.0435 78.8957 15.015 79.0434 15.0167H80.307C80.8479 15.0171 81.3843 14.917 81.8891 14.7216C82.3454 14.5436 82.7589 14.2703 83.1023 13.9197C83.4477 13.5585 83.7126 13.1275 83.8795 12.6554C84.0685 12.1192 84.1611 11.5535 84.153 10.9847C84.1626 10.4365 84.0658 9.8917 83.8679 9.38079C83.6856 8.92539 83.418 8.50944 83.0795 8.15558C83.3815 8.07907 83.6673 7.94897 83.9237 7.77139C84.1725 7.59785 84.3884 7.38092 84.561 7.13087C84.7397 6.87111 84.8739 6.58313 84.958 6.27886C85.0492 5.95074 85.0943 5.61144 85.0922 5.27078H83.4375L83.4378 5.27107ZM81.9953 18.9497C82.2107 18.9444 82.4251 18.9803 82.6272 19.0556C82.7939 19.1205 82.9446 19.2212 83.0688 19.3507C83.1884 19.4776 83.2782 19.6298 83.3316 19.7962C83.3883 19.9725 83.4166 20.1567 83.4153 20.342C83.4165 20.5292 83.3804 20.7147 83.3091 20.8877C83.2392 21.0568 83.1365 21.2102 83.0069 21.3389C82.8764 21.4686 82.7228 21.5725 82.5541 21.6451C82.3772 21.7204 82.1869 21.7584 81.9949 21.7565H78.6745C78.466 21.7608 78.2588 21.7229 78.0651 21.6451C77.8988 21.5771 77.7497 21.4725 77.629 21.3389C77.5125 21.2075 77.4232 21.0541 77.3661 20.8877C77.3057 20.7122 77.2755 20.5277 77.2768 20.342C77.2755 20.1567 77.3038 19.9725 77.3605 19.7962C77.4133 19.6308 77.5011 19.4788 77.6177 19.3507C77.7391 19.2205 77.8882 19.1196 78.0539 19.0556C78.2521 18.9809 78.4628 18.9449 78.6745 18.9497H81.9953ZM81.727 9.13141C82.0773 9.55842 82.2525 10.1766 82.2525 10.9859C82.2525 11.7508 82.0773 12.3541 81.727 12.7959C81.3767 13.2377 80.8661 13.4585 80.1951 13.4585C79.5242 13.4585 79.0173 13.2469 78.6745 12.8237C78.3316 12.4004 78.1602 11.788 78.1601 10.9866C78.1601 10.2144 78.3315 9.60553 78.6745 9.15991C79.0174 8.71428 79.5243 8.49152 80.1951 8.49161C80.866 8.49113 81.3766 8.70439 81.727 9.13141ZM87.6477 8.46861C86.8909 9.48609 86.5125 11.0676 86.5126 13.2132C86.4963 14.1738 86.5939 15.1329 86.8034 16.0702C86.9571 16.7725 87.252 17.4358 87.67 18.0194C88.0355 18.5138 88.5281 18.8989 89.0949 19.1333C89.7218 19.3783 90.3904 19.4974 91.0629 19.484C91.614 19.4911 92.1611 19.389 92.6729 19.1833C93.1463 18.9906 93.5718 18.6959 93.9197 18.3202C94.2789 17.924 94.553 17.4576 94.7248 16.9502C94.9226 16.3639 95.019 15.7479 95.01 15.129H93.1532C93.1581 15.5094 93.1072 15.8884 93.0023 16.2539C92.9147 16.5621 92.7706 16.8511 92.5774 17.1061C92.4054 17.3333 92.1828 17.5166 91.9274 17.6414C91.6719 17.7662 91.3909 17.8289 91.1069 17.8244C90.2198 17.8244 89.562 17.4977 89.1335 16.8443C88.705 16.1908 88.4869 15.1661 88.4793 13.7701H95.0094V12.5783C95.0235 11.7138 94.939 10.8506 94.7578 10.0054C94.6274 9.37884 94.3746 8.78449 94.0142 8.25669C93.7004 7.81532 93.2707 7.47022 92.7731 7.2599C92.2223 7.03858 91.6329 6.93061 91.0399 6.94238C89.5349 6.94257 88.4042 7.45132 87.6477 8.46861ZM92.5339 9.48783C92.873 10.0781 93.0426 10.9487 93.0427 12.0997H88.5031C88.5372 11.587 88.6158 11.0783 88.7378 10.5794C88.8297 10.1907 88.9886 9.82129 89.2075 9.48783C89.3973 9.2046 89.6575 8.97613 89.9622 8.82503C90.3004 8.66876 90.6697 8.59255 91.0417 8.60227C91.3483 8.59349 91.651 8.67198 91.915 8.82866C92.1791 8.98535 92.3937 9.21386 92.534 9.48783H92.5339ZM100.434 7.32701C99.8996 7.61781 99.4637 8.06173 99.1814 8.60227H99.0471L98.7901 7.22113H97.3702V19.217H99.2485V11.8992C99.2418 11.4285 99.304 10.9594 99.433 10.5069C99.5379 10.1363 99.7042 9.78608 99.925 9.47105C100.111 9.20577 100.354 8.98517 100.635 8.82503C100.894 8.67894 101.187 8.60224 101.484 8.60227C101.719 8.59968 101.952 8.6316 102.177 8.69702C102.383 8.75818 102.568 8.87357 102.714 9.03116C102.877 9.21695 102.996 9.43798 103.061 9.67718C103.151 10.0129 103.192 10.3598 103.184 10.7074V19.217H105.062V10.5737C105.075 10.0021 105.003 9.43183 104.85 8.88131C104.733 8.46745 104.529 8.08373 104.252 7.75634C104 7.47041 103.678 7.25543 103.318 7.1326C102.921 7.00148 102.506 6.93749 102.088 6.94325C101.514 6.93628 100.947 7.06789 100.434 7.32701ZM108.266 8.46861C107.599 9.48609 107.266 11.0676 107.266 13.2132C107.253 14.1511 107.335 15.0878 107.512 16.0089C107.638 16.7015 107.892 17.3644 108.26 17.9637C108.572 18.4588 109.015 18.8562 109.54 19.111C110.118 19.3722 110.747 19.4997 111.38 19.484C111.969 19.5012 112.554 19.3691 113.079 19.0998C113.539 18.8527 113.932 18.4972 114.225 18.064C114.53 17.6067 114.748 17.0969 114.868 16.5603C115.005 15.9706 115.073 15.3669 115.07 14.7614H113.213C113.217 15.2014 113.186 15.641 113.118 16.0757C113.069 16.4107 112.963 16.7348 112.805 17.0336C112.673 17.2797 112.476 17.4841 112.235 17.6239C111.972 17.7645 111.677 17.8336 111.379 17.8244C110.619 17.8244 110.071 17.4754 109.736 16.7774C109.4 16.0794 109.232 15.0399 109.232 13.6587V12.7788C109.232 11.3902 109.403 10.3469 109.746 9.64897C110.089 8.95107 110.633 8.60208 111.379 8.60198C111.67 8.59163 111.959 8.65685 112.218 8.79133C112.447 8.92436 112.634 9.12173 112.754 9.35938C112.903 9.65816 112.999 9.98028 113.039 10.3118C113.099 10.7602 113.128 11.2125 113.123 11.665H115.069C115.077 10.9835 115.008 10.3033 114.862 9.63783C114.747 9.10414 114.525 8.59986 114.208 8.15645C113.912 7.75757 113.517 7.44441 113.062 7.24876C112.528 7.03167 111.955 6.92738 111.379 6.94238C109.971 6.94257 108.933 7.45132 108.266 8.46861H108.266ZM125.022 7.22113H123.11L120.862 16.5223H120.774L118.112 7.22113H116.054L119.744 19.217C119.656 19.6585 119.517 20.0882 119.331 20.4979C119.192 20.8025 119.003 21.0813 118.771 21.3224C118.583 21.5171 118.354 21.6674 118.1 21.7625C117.864 21.8474 117.614 21.8907 117.363 21.8905H116.703V23.1825C116.903 23.2582 117.111 23.3087 117.323 23.3329C117.563 23.3599 117.804 23.3729 118.045 23.3719C118.539 23.3814 119.025 23.2501 119.448 22.9932C119.869 22.7261 120.234 22.3779 120.521 21.9684C120.852 21.4985 121.124 20.9898 121.332 20.4536C121.571 19.8494 121.777 19.2321 121.947 18.6047L125.022 7.22113Z" fill="#161616"/>
<path fill-rule="evenodd" clip-rule="evenodd" d="M10.7199 16.4435L12.0153 14.4662L12.021 14.4749L20.2702 1.8705H3.77189L7.63533 7.77376L6.34843 9.73785L0 0H24.0134L12.0067 18.4173L10.7199 16.4435ZM13.2936 7.55649L11.9982 9.53375L11.9926 9.52521L3.74339 22.1295H20.2415L16.3781 16.2264L17.6651 14.2621L24.0134 24H0L12.0068 5.58271L13.2936 7.55649Z" fill="#161616"/>
</svg>
